# xmcd CD database file
#
# Track frame offsets:
#	183
#	13690
#	27273
#	38160
#	54430
#	69738
#	82428
#	101295
#	114630
#	125355
#	140125
#	163815
#	187785
#	205758
#	221848
#	233343
#	243535
#	254618
#	265623
#	275270
#
# Disc length: 3858 seconds
#
# Revision: 0
# Processed by: cddbd v1.4PL0 Copyright (c) Steve Scherf et al.
# Submitted via: CDex 1.50
#
DISCID=210f1014
DTITLE=Jimmy Witherspoon - Midnight Blues
DYEAR=1992
DGENRE=Jazz
TTITLE0=When The Lights Go Out
TTITLE1=All That's Good
TTITLE2=Spoon's Blues
TTITLE3=When I've Been Drinkin'
TTITLE4=It Ain't What You're Thinkin'
TTITLE5=S.K. Blues
TTITLE6=There's Good Rockin' Tonight
TTITLE7=Times Have Changed
TTITLE8=Tain't Nobody Business
TTITLE9=Wee Baby Blues
TTITLE10=Sweet's Blues
TTITLE11=Midnight Blues
TTITLE12=Goin' To Chicago Blues
TTITLE13=In Blues
TTITLE14=Gee Baby, Ain't I Good To You
TTITLE15=Loser's Blues
TTITLE16=Keys To The Highway
TTITLE17=Cry The Blues
TTITLE18=Out Blues
TTITLE19=Coming Home
EXTD=YEAR: 1992
EXTT0=
EXTT1=
EXTT2=
EXTT3=
EXTT4=
EXTT5=
EXTT6=
EXTT7=
EXTT8=
EXTT9=
EXTT10=
EXTT11=
EXTT12=
EXTT13=
EXTT14=
EXTT15=
EXTT16=
EXTT17=
EXTT18=
EXTT19=
PLAYORDER=
